<?xml version="1.0" encoding="UTF-8" standalone="no"?>
<svg
   xmlns:dc="http://purl.org/dc/elements/1.1/"
   xmlns:cc="http://creativecommons.org/ns#"
   xmlns:rdf="http://www.w3.org/1999/02/22-rdf-syntax-ns#"
   xmlns:svg="http://www.w3.org/2000/svg"
   xmlns="http://www.w3.org/2000/svg"
   xmlns:sodipodi="http://sodipodi.sourceforge.net/DTD/sodipodi-0.dtd"
   xmlns:inkscape="http://www.inkscape.org/namespaces/inkscape"
   viewBox="0 0 640 640"
   version="1.1"
   id="svg3766"
   sodipodi:docname="icon.svg"
   inkscape:version="0.92.4 (5da689c313, 2019-01-14)"
   width="640"
   height="640">
  <metadata
     id="metadata3772">
    <rdf:RDF>
      <cc:Work
         rdf:about="">
        <dc:format>image/svg+xml</dc:format>
        <dc:type
           rdf:resource="http://purl.org/dc/dcmitype/StillImage" />
        <dc:title></dc:title>
      </cc:Work>
    </rdf:RDF>
  </metadata>
  <defs
     id="defs3770" />
  <sodipodi:namedview
     pagecolor="#ffffff"
     bordercolor="#666666"
     borderopacity="1"
     objecttolerance="10"
     gridtolerance="10"
     guidetolerance="10"
     inkscape:pageopacity="0"
     inkscape:pageshadow="2"
     inkscape:window-width="2633"
     inkscape:window-height="1737"
     id="namedview3768"
     showgrid="false"
     inkscape:zoom="1.3906433"
     inkscape:cx="334.66975"
     inkscape:cy="147.68215"
     inkscape:window-x="396"
     inkscape:window-y="81"
     inkscape:window-maximized="0"
     inkscape:current-layer="svg3766" />
  <path
     d="m 140.92,263.9 c 32.112,0 58.142,-30.422 58.142,-67.947 0,-37.531 -26.03,-67.958 -58.142,-67.958 -32.108,0 -58.139,30.427 -58.139,67.958 0,37.525 26.031,67.947 58.139,67.947 z"
     id="path3756"
     style="fill:#000000;fill-opacity:1"
     inkscape:connector-curvature="0" />
  <path
     d="M 140.92,195.95"
     id="path3758"
     inkscape:connector-curvature="0" />
  <path
     d="m 266.46,176.68 h 232.4 c 34.095,0 54.179,25.648 54.179,59.985 v 98.316 h -286.58 v -158.3 z"
     id="path3760"
     style="fill:#000000;fill-opacity:1"
     inkscape:connector-curvature="0" />
  <path
     sodipodi:type="inkscape:offset"
     inkscape:radius="0"
     inkscape:original="M 231.00195 105.06055 C 217.10095 105.06055 203.19922 117.32738 203.19922 141.85938 L 203.19922 200.82617 L 113.84766 200.82617 C 70.710656 201.00697 70.640656 265.81445 113.84766 265.81445 L 230.98828 265.81445 C 248.09428 265.81445 258.80469 249.67783 258.80469 231.42383 L 258.80469 141.85938 C 258.80469 117.32738 244.90295 105.06055 231.00195 105.06055 z "
     style="fill:#000000;fill-opacity:1"
     id="path3762"
     d="m 231.00195,105.06055 c -13.901,0 -27.80273,12.26683 -27.80273,36.79883 v 58.96679 h -89.35156 c -43.137004,0.1808 -43.207004,64.98828 0,64.98828 h 117.14062 c 17.106,0 27.81641,-16.13662 27.81641,-34.39062 v -89.56445 c 0,-24.532 -13.90174,-36.79883 -27.80274,-36.79883 z"
     transform="translate(0,70)" />
  <path
     d="m 71.677,120.024 c 0,-53.509 -63.519,-53.509 -63.519,0 v 429.08 h 64.929 v -110.81 h 494.02 v 109.98 h 63.517 v -331.41 c 0,-56.47 -64.222,-56.47 -64.222,0 v 132.28 H 71.672 v -229.12 h 3.8e-5 z"
     id="path3764"
     style="fill:#000000;fill-opacity:1"
     inkscape:connector-curvature="0" />
  <path
     sodipodi:type="inkscape:offset"
     inkscape:radius="-10"
     inkscape:original="M 140.91992 57.994141 C 108.81192 57.994141 82.78125 88.422125 82.78125 125.95312 C 82.78125 163.47813 108.81192 193.90039 140.91992 193.90039 C 173.03192 193.90039 199.0625 163.47812 199.0625 125.95312 C 199.0625 88.422125 173.03192 57.994141 140.91992 57.994141 z "
     style="fill:#ff0000;fill-opacity:1"
     id="path4968"
     d="m 140.91992,67.994141 c -25.79016,0 -48.13867,25.051842 -48.13867,57.958979 0,32.90042 22.34732,57.94727 48.13867,57.94727 25.79613,0 48.14258,-25.04684 48.14258,-57.94727 0,-32.907153 -22.34763,-57.958979 -48.14258,-57.958979 z"
     transform="translate(0,70)" />
  <path
     d="m 231.00195,115.06055 c -8.01805,0 -17.80273,6.04467 -17.80273,26.79883 v 58.96679 a 10.001,10.001 0 0 1 -10,10 h -89.31055 c -8.28039,0.0347 -13.24777,2.81261 -16.82617,6.85742 -3.5784,4.04482 -5.590571,9.81418 -5.59375,15.70899 -0.0032,5.8948 2.002239,11.64106 5.564453,15.6543 3.562217,4.01323 8.512587,6.76757 16.814457,6.76757 h 117.14062 c 5.40856,0 9.12475,-2.15654 12.3711,-6.41406 3.24634,-4.25752 5.44531,-10.80537 5.44531,-17.97656 v -89.56445 c 0,-20.75415 -9.78469,-26.79883 -17.80274,-26.79883 z"
     id="path4974"
     style="fill:#ff0000;fill-opacity:1"
     inkscape:original="M 231.00195 105.06055 C 217.10095 105.06055 203.19922 117.32738 203.19922 141.85938 L 203.19922 200.82617 L 113.84766 200.82617 C 70.710656 201.00697 70.640656 265.81445 113.84766 265.81445 L 230.98828 265.81445 C 248.09428 265.81445 258.80469 249.67783 258.80469 231.42383 L 258.80469 141.85938 C 258.80469 117.32738 244.90295 105.06055 231.00195 105.06055 z "
     inkscape:radius="-10"
     sodipodi:type="inkscape:offset"
     transform="translate(0,70)" />
  <path
     sodipodi:type="inkscape:offset"
     inkscape:radius="-10"
     inkscape:original="M 266.46094 106.67969 L 266.45898 106.68164 L 266.45898 264.98047 L 553.03906 264.98047 L 553.03906 166.66406 C 553.03906 132.32706 532.95438 106.67969 498.85938 106.67969 L 266.46094 106.67969 z "
     style="fill:#ff0000;fill-opacity:1"
     id="path4976"
     d="m 276.45898,116.67969 v 138.30078 h 266.58008 v -88.31641 c 0,-15.21874 -4.43582,-27.75655 -11.85937,-36.3164 -7.42356,-8.55985 -17.78026,-13.66797 -32.32031,-13.66797 z"
     transform="translate(0,70)" />
  <path
     sodipodi:type="inkscape:offset"
     inkscape:radius="-10"
     inkscape:original="M 39.917969 9.8925781 C 24.038219 9.8925781 8.1582031 23.268938 8.1582031 50.023438 L 8.1582031 479.10352 L 73.087891 479.10352 L 73.087891 368.29492 L 567.10742 368.29492 L 567.10742 478.27344 L 630.62305 478.27344 L 630.62305 146.86328 C 630.62305 90.393281 566.40234 90.393281 566.40234 146.86328 L 566.40234 279.14453 L 71.671875 279.14453 L 71.671875 50.023438 L 71.677734 50.023438 C 71.677734 23.268938 55.797719 9.8925781 39.917969 9.8925781 z "
     style="fill:#ff0000;fill-opacity:1"
     id="path4980"
     d="m 39.917969,19.892578 c -10.264062,0 -21.759766,7.33333 -21.759766,30.13086 V 469.10352 h 44.929688 v -100.8086 a 10.001,10.001 0 0 1 10,-10 H 567.10742 a 10.001,10.001 0 0 1 10,10 v 99.97852 h 43.51563 V 146.86328 c 0,-24.44415 -11.91823,-32.35156 -22.11133,-32.35156 -10.1931,0 -22.10938,7.90741 -22.10938,32.35156 v 132.28125 a 10.001,10.001 0 0 1 -10,10 H 71.671875 a 10.001,10.001 0 0 1 -10,-10 V 50.023438 a 10.001,10.001 0 0 1 0.002,-0.05078 C 61.655222,27.218634 50.173713,19.892578 39.917969,19.892578 Z"
     transform="translate(0,70)" />
</svg>
